<?xml version="1.0" encoding="UTF-8" standalone="no"?>
<!-- Created with Inkscape (http://www.inkscape.org/) -->

<svg
   width="234.16394mm"
   height="134.22762mm"
   viewBox="0 0 234.16394 134.22762"
   version="1.1"
   id="svg179336"
   inkscape:version="1.1.2 (f7857a4fc2, 2022-04-03)"
   sodipodi:docname="bots.svg"
   xmlns:inkscape="http://www.inkscape.org/namespaces/inkscape"
   xmlns:sodipodi="http://sodipodi.sourceforge.net/DTD/sodipodi-0.dtd"
   xmlns="http://www.w3.org/2000/svg"
   xmlns:svg="http://www.w3.org/2000/svg">
  <sodipodi:namedview
     id="namedview179338"
     pagecolor="#ffffff"
     bordercolor="#666666"
     borderopacity="1.0"
     inkscape:pageshadow="2"
     inkscape:pageopacity="0.0"
     inkscape:pagecheckerboard="0"
     inkscape:document-units="mm"
     showgrid="false"
     fit-margin-top="0"
     fit-margin-left="0"
     fit-margin-right="0"
     fit-margin-bottom="0"
     inkscape:zoom="0.733172"
     inkscape:cx="512.8401"
     inkscape:cy="304.15782"
     inkscape:window-width="1920"
     inkscape:window-height="1016"
     inkscape:window-x="0"
     inkscape:window-y="27"
     inkscape:window-maximized="1"
     inkscape:current-layer="layer1" />
  <defs
     id="defs179333" />
  <g
     inkscape:label="Layer 1"
     inkscape:groupmode="layer"
     id="layer1"
     transform="translate(-37.37247,-68.214253)">
    <g
       id="g82272"
       transform="matrix(0.83336704,0,0,0.83336704,-83.800714,304.8199)"
       inkscape:export-filename="/media/issa/f46a2e62-019e-4bdf-9e7a-616962b8730a/home/yugi/Dropbox/JOSA/Design and Branding/JOSA.link/josa-link.png"
       inkscape:export-xdpi="95.988487"
       inkscape:export-ydpi="95.988487">
      <g
         id="g26535"
         transform="matrix(1.7253416,-0.10634874,0.10634874,1.7253416,-95.375263,217.77602)">
        <ellipse
           style="opacity:0.2;vector-effect:none;fill:#000000;fill-opacity:1;stroke:none;stroke-width:7.74553;stroke-linecap:butt;stroke-linejoin:miter;stroke-miterlimit:4;stroke-dasharray:none;stroke-dashoffset:0;stroke-opacity:1"
           id="path4996-1-5-9-6"
           cx="178.74191"
           cy="193.28944"
           rx="20.286905"
           ry="4.2059674"
           inkscape:export-filename="/home/issa/flowRoot7051-3-9-1-0-2.png"
           inkscape:export-xdpi="96"
           inkscape:export-ydpi="96"
           transform="scale(1,-1)" />
        <g
           transform="matrix(0.79844016,0,0,0.79844016,117.67262,-312.27699)"
           id="layer1-4-2"
           inkscape:label="Layer 1"
           style="stroke-width:1.29044">
          <path
             inkscape:connector-curvature="0"
             id="path2070-33-4"
             d="m 72.914952,43.2469 2.0535,16.960451 -3.498566,-0.152112 0.380281,-16.732283 z"
             style="fill:#474747;fill-opacity:1;fill-rule:evenodd;stroke:none;stroke-width:0.42778px;stroke-linecap:butt;stroke-linejoin:miter;stroke-opacity:1" />
          <g
             style="stroke-width:18.3918"
             transform="matrix(0.08775739,-0.00515921,0.00515921,0.08775739,39.578463,129.29676)"
             id="g11068-3-7">
            <path
               style="fill:#ccdae0;fill-opacity:1;fill-rule:evenodd;stroke:none;stroke-width:4.86617px;stroke-linecap:butt;stroke-linejoin:miter;stroke-opacity:1"
               d="m 168.91211,-355.81836 c 158.44531,1.47852 316.89062,2.95703 475.33594,4.43555 1.20703,-119.2168 2.41406,-238.4336 3.62109,-357.65039 -150.12435,-8.9668 -300.2487,-17.9336 -450.37305,-26.90039 -9.52799,126.70507 -19.05599,253.41015 -28.58398,380.11523 z"
               id="path8208-8-9"
               inkscape:connector-curvature="0" />
            <path
               transform="rotate(2.0892722)"
               style="opacity:1;fill:#333333;fill-opacity:1;stroke:none;stroke-width:73.5673;stroke-linecap:butt;stroke-linejoin:round;stroke-miterlimit:4;stroke-dasharray:none;stroke-dashoffset:0;stroke-opacity:1"
               d="m 261.46484,-513.62891 c -15.22154,0.53167 -29.93015,12.37123 -31.91384,27.78879 -1.78152,14.97294 10.04585,29.66725 24.74813,32.09467 16.39394,4.04335 35.47548,-5.46879 40.79416,-21.78203 4.63844,-13.83463 -3.52303,-30.43588 -17.31785,-35.21622 -5.11645,-2.21448 -10.7556,-3.09446 -16.3106,-2.88521 z"
               id="path8216-6-3"
               inkscape:connector-curvature="0" />
            <path
               transform="rotate(2.0892722)"
               style="opacity:1;fill:#333333;fill-opacity:1;stroke:none;stroke-width:73.5673;stroke-linecap:butt;stroke-linejoin:round;stroke-miterlimit:4;stroke-dasharray:none;stroke-dashoffset:0;stroke-opacity:1"
               d="m 525.99414,-513.66797 c -16.35086,0.0665 -32.10425,13.2598 -33.56133,29.81481 -1.27014,14.92446 10.72875,29.5704 25.63619,31.2101 16.94796,3.27379 35.90933,-7.2799 40.78647,-24.09913 3.43586,-12.64115 -2.97337,-27.43738 -15.09236,-32.82183 -5.43747,-2.87712 -11.63314,-4.21217 -17.76897,-4.10395 z"
               id="path8216-0-0-9"
               inkscape:connector-curvature="0" />
            <path
               style="opacity:1;fill:#3897c0;fill-opacity:1;stroke:none;stroke-width:73.5673;stroke-linecap:butt;stroke-linejoin:round;stroke-miterlimit:4;stroke-dasharray:none;stroke-dashoffset:0;stroke-opacity:1"
               d="m 157.66992,-543.79492 c -32.25028,11.21345 -55.66272,43.99 -55.45876,78.18567 -0.37423,28.03271 14.72436,56.16773 39.31228,70.05652 4.42135,2.55422 9.0915,4.6709 13.91797,6.33593 1.99244,-20.98423 2.76117,-42.05822 4.26617,-63.07886 1.94448,-31.2784 3.88896,-62.5568 5.83344,-93.8352 -2.6237,0.77865 -5.2474,1.55729 -7.8711,2.33594 z"
               id="path8278-4-2"
               inkscape:connector-curvature="0" />
            <path
               style="opacity:1;fill:#3897c0;fill-opacity:1;stroke:none;stroke-width:73.5673;stroke-linecap:butt;stroke-linejoin:round;stroke-miterlimit:4;stroke-dasharray:none;stroke-dashoffset:0;stroke-opacity:1"
               d="m 667.30859,-540.99414 c -3.63257,52.10182 -7.05973,104.21762 -10.53515,156.33008 27.8973,-7.62123 52.54049,-28.35684 62.66886,-55.72433 9.57423,-25.86172 3.99649,-56.86551 -14.6872,-77.29582 -9.86916,-11.39223 -22.89641,-19.95042 -37.1594,-24.77087 -0.0957,0.48698 -0.1914,0.97396 -0.28711,1.46094 z"
               id="path8278-1-8-8"
               inkscape:connector-curvature="0" />
            <path
               style="opacity:1;fill:#6e96a8;fill-opacity:1;stroke:none;stroke-width:73.5673;stroke-linecap:butt;stroke-linejoin:round;stroke-miterlimit:4;stroke-dasharray:none;stroke-dashoffset:0;stroke-opacity:1"
               d="m 425.22584,-774.12122 a 142.99676,94.685193 4.1917841 0 0 -123.11773,34.71975 l 240.02088,17.59143 a 142.99676,94.685193 4.1917841 0 0 -116.90315,-52.31118 z"
               id="path8331-8-3"
               inkscape:connector-curvature="0" />
            <ellipse
               transform="rotate(2.0892722)"
               style="opacity:1;fill:#3897c0;fill-opacity:1;stroke:none;stroke-width:73.5673;stroke-linecap:butt;stroke-linejoin:round;stroke-miterlimit:4;stroke-dasharray:none;stroke-dashoffset:0;stroke-opacity:1"
               id="path8216-0-2-8-0"
               cx="397.47058"
               cy="-974.28918"
               rx="30.187569"
               ry="27.293428" />
            <path
               style="fill:#6e96a8;fill-opacity:1;fill-rule:evenodd;stroke:none;stroke-width:4.86617px;stroke-linecap:butt;stroke-linejoin:miter;stroke-opacity:1"
               d="m 284.28516,-303.36523 c 78.76237,-4.16342 157.52474,-8.32683 236.28711,-12.49024 -1.90105,-11.29232 -3.80209,-22.58463 -5.70313,-33.87695 -76.2194,-0.83399 -152.4388,-1.66797 -228.6582,-2.50196 -0.64193,16.28972 -1.28386,32.57943 -1.92578,48.86915 z"
               id="path8353-9-17"
               inkscape:connector-curvature="0" />
          </g>
          <path
             inkscape:connector-curvature="0"
             id="path8248-7-8"
             d="m 79.734375,126.50195 c 1.524089,4.49219 3.048177,8.98438 4.572266,13.47657 1.101562,-0.0573 2.203125,-0.11459 3.304687,-0.17188 -1.826172,-4.79622 -3.652344,-9.59245 -5.478516,-14.38867 -0.799479,0.36133 -1.598958,0.72265 -2.398437,1.08398 z"
             style="fill:#6e96a8;fill-opacity:1;fill-rule:evenodd;stroke:none;stroke-width:0.42778px;stroke-linecap:butt;stroke-linejoin:miter;stroke-opacity:1" />
          <path
             inkscape:connector-curvature="0"
             id="path8248-9-7-9"
             d="m 63.898438,138.57812 c 1.102213,0.10938 2.204427,0.21875 3.30664,0.32813 0.923828,-4.43815 1.847656,-8.8763 2.771484,-13.31445 -0.78776,-0.40625 -1.57552,-0.8125 -2.363281,-1.21875 -1.238281,4.73502 -2.476562,9.47005 -3.714843,14.20507 z"
             style="fill:#6e96a8;fill-opacity:1;fill-rule:evenodd;stroke:none;stroke-width:0.42778px;stroke-linecap:butt;stroke-linejoin:miter;stroke-opacity:1" />
          <path
             inkscape:connector-curvature="0"
             id="path8212-6"
             d="m 62.052734,101.7793 c -0.113281,8.61132 -0.226562,17.22265 -0.339843,25.83398 8.734375,-0.20768 17.46875,-0.41536 26.203125,-0.62305 -0.662761,-8.93099 -1.325521,-17.86197 -1.988282,-26.79296 -7.958333,0.52734 -15.916666,1.05468 -23.875,1.58203 z"
             style="fill:#ccdae0;fill-opacity:1;fill-rule:evenodd;stroke:none;stroke-width:0.42778px;stroke-linecap:butt;stroke-linejoin:miter;stroke-opacity:1" />
          <path
             inkscape:connector-curvature="0"
             id="path8214-1"
             d="m 62.259766,137.33594 c -3.192193,0.0782 -6.324268,1.72491 -8.132028,4.3686 -1.313464,1.88386 -2.018552,4.22173 -1.818958,6.52035 0.126297,0.86693 0.666608,1.73287 1.516534,2.0385 0.469682,0.10563 0.95153,-0.007 1.427023,0.0162 5.426734,-0.12093 10.853589,0.0554 16.278913,0.16571 1.438184,-1.33699 1.964992,-3.50431 1.433127,-5.3772 -0.515554,-2.12389 -1.946914,-3.93811 -3.706913,-5.19141 -1.757535,-1.27476 -3.786926,-2.26579 -5.966264,-2.50409 -0.342583,-0.0404 -0.686919,-0.0458 -1.031434,-0.0367 z"
             style="fill:#ccdae0;fill-opacity:1;fill-rule:evenodd;stroke:none;stroke-width:0.42778px;stroke-linecap:butt;stroke-linejoin:miter;stroke-opacity:1" />
          <path
             inkscape:connector-curvature="0"
             id="path8214-4-5"
             d="m 88.404297,135.20276 c -2.508184,0.2094 -5.009433,1.11704 -6.893878,2.81857 -1.186208,0.99844 -1.882433,2.5561 -1.797199,4.10819 0.07863,1.59113 0.940373,3.15676 2.319933,3.97904 0.524104,0.29182 1.136496,0.22229 1.711696,0.24029 3.701603,0.0731 7.405219,0.0457 11.104876,-0.0974 1.450957,-0.0578 2.90349,-0.11924 4.351314,-0.22115 0.571914,-0.12959 0.971151,-0.62993 1.229531,-1.12544 0.29313,-0.70488 0.0792,-1.47882 -0.0823,-2.18829 -0.509659,-1.95028 -1.805087,-3.61967 -3.389192,-4.83147 -2.422308,-1.85755 -5.516047,-2.76841 -8.554761,-2.68237 z"
             style="fill:#ccdae0;fill-opacity:1;fill-rule:evenodd;stroke:none;stroke-width:0.42778px;stroke-linecap:butt;stroke-linejoin:miter;stroke-opacity:1" />
          <path
             inkscape:connector-curvature="0"
             id="path8212-2-4-4"
             d="m 62.09375,101.6582 c -0.158203,6.14258 -0.316406,12.28516 -0.474609,18.42774 8.479817,-0.3099 16.959635,-0.61979 25.439453,-0.92969 -0.361979,-6.36003 -0.723959,-12.72005 -1.085938,-19.08008 -7.959635,0.52735 -15.919271,1.05469 -23.878906,1.58203 z"
             style="fill:#333333;fill-opacity:1;fill-rule:evenodd;stroke:none;stroke-width:0.42778px;stroke-linecap:butt;stroke-linejoin:miter;stroke-opacity:1" />
          <path
             inkscape:connector-curvature="0"
             id="path8402-3-9"
             d="m 73.869141,103.50781 c -0.544313,1.25528 -1.087286,2.51114 -1.628907,3.76758 -1.229215,-0.31161 -2.452502,-0.64588 -3.677734,-0.97266 0.498922,1.22784 1.102938,2.40905 1.628906,3.625 -0.680992,0.77157 -1.535933,1.35787 -2.287116,2.05544 -0.20117,0.17227 -0.402339,0.34455 -0.603509,0.51683 1.221315,0.31219 2.453964,0.57716 3.6875,0.83594 0.0018,1.38412 -0.001,2.76829 0.01563,4.15234 0.990057,-0.83109 1.897227,-1.75415 2.869141,-2.60547 0.44644,0.31077 0.827671,0.70363 1.255804,1.03833 0.574888,0.48397 1.149776,0.96794 1.724665,1.45191 0.09763,-0.9087 -0.05051,-1.81896 -0.05057,-2.72877 -0.0196,-0.44393 -0.0392,-0.88785 -0.05881,-1.33178 -0.499458,0.46346 -0.965669,1.01773 -1.634766,1.23633 -0.374391,-0.37918 -0.397794,-0.94469 -0.617145,-1.40671 -0.110837,-0.33868 -0.197474,-0.68501 -0.265668,-1.0347 0.414383,-0.36402 0.795597,-0.91008 0.642579,-1.48828 -0.13199,-0.57915 -0.841332,-1.02953 -1.400391,-0.73828 -0.750705,0.36667 -0.82172,1.5594 -0.145633,2.03522 0.203406,0.17403 0.173548,0.47255 0.06162,0.68772 -0.194335,0.64891 -0.42401,1.28666 -0.669888,1.91768 -0.605852,-0.0289 -1.031784,-0.52346 -1.419816,-0.93132 -1.111591,-1.36474 -1.285302,-3.47613 -0.262751,-4.93873 0.817698,-1.31205 2.578425,-1.97812 4.043246,-1.4363 1.334061,0.47434 2.20739,1.83312 2.324125,3.21221 0.08728,0.92017 -0.162317,1.83515 -0.546132,2.66446 0.250328,0.14639 0.511084,-0.0743 0.768864,-0.081 0.968581,-0.24231 1.935495,-0.4911 2.901058,-0.74516 -0.905717,-0.85258 -1.955684,-1.52929 -2.916036,-2.31537 -0.07951,-0.0507 -0.17941,-0.12658 -0.08837,-0.21938 0.579458,-1.21384 1.154772,-2.42965 1.727058,-3.64689 -0.980927,0.20225 -1.909494,0.59331 -2.879079,0.8392 -0.300073,0.0894 -0.600146,0.17882 -0.900218,0.26823 -0.524396,-1.23006 -1.036919,-2.46531 -1.583985,-3.68555 z"
             style="fill:#3897c0;fill-opacity:1;stroke-width:1.61681" />
          <path
             style="fill:#6e96a8;fill-opacity:1;fill-rule:evenodd;stroke:none;stroke-width:0.42778px;stroke-linecap:butt;stroke-linejoin:miter;stroke-opacity:1"
             d="m 106.12695,94.21875 c -0.34425,1.980356 -1.48675,3.740052 -2.90889,5.125097 -1.85853,1.755353 -4.170554,2.956603 -6.560732,3.816163 -1.332489,0.45008 -2.765973,0.70718 -4.169047,0.48843 -0.133282,0.15938 0.07716,0.33174 0.07809,0.5024 0.26173,0.82733 0.52346,1.65465 0.78519,2.48197 3.135896,-0.66639 6.232923,-1.68339 8.992029,-3.34147 2.10951,-1.42564 3.78203,-3.387751 5.29291,-5.413628 0.3951,-0.540919 0.77477,-1.092833 1.15061,-1.647243 -0.88477,-0.686849 -1.76953,-1.373698 -2.6543,-2.060547 -0.002,0.01628 -0.004,0.03255 -0.006,0.04883 z"
             id="path1928-2-0"
             inkscape:connector-curvature="0"
             sodipodi:nodetypes="cczcczc" />
          <path
             style="fill:#333333;fill-opacity:1;fill-rule:evenodd;stroke:none;stroke-width:0.42778px;stroke-linecap:butt;stroke-linejoin:miter;stroke-opacity:1"
             d="m 87.328125,101.51758 c 0.116725,3.47216 0.300772,6.9418 0.53125,10.4082 2.27208,-0.16431 4.414032,-1.63952 5.335269,-3.7288 0.609082,-1.55458 0.259087,-3.42769 -0.856443,-4.66769 -0.943076,-1.16187 -2.223714,-1.97638 -3.483911,-2.75205 -0.514355,-0.30049 -1.039513,-0.58184 -1.561321,-0.869037 0.01172,0.536457 0.02344,1.072917 0.03516,1.609377 z"
             id="path8265-8-4-6-3-2"
             inkscape:connector-curvature="0" />
          <g
             transform="rotate(-7.7071999,52.430955,102.11727)"
             id="g12187-0-5"
             style="stroke-width:1.29044"
             inkscape:transform-center-x="2.353055"
             inkscape:transform-center-y="-1.5782832">
            <path
               sodipodi:nodetypes="cczcczc"
               inkscape:connector-curvature="0"
               id="path1928-92-7"
               d="m 58.035156,106.72266 c -2.438691,1.49436 -4.768368,3.26009 -6.516984,5.54778 -1.391778,2.16605 -2.037022,4.7104 -2.422596,7.22941 -0.074,0.48898 -0.13408,0.97989 -0.193232,1.47085 1.063151,0.37565 2.126302,0.75131 3.189453,1.12696 -0.809806,-2.72364 -0.212293,-5.78974 1.465294,-8.06885 1.253992,-1.80824 2.882317,-3.3973 4.849171,-4.41079 0.553615,-0.2683 1.146568,-0.4539 1.753894,-0.55161 -0.563614,-0.82172 -1.25492,-1.54368 -1.87273,-2.32334 -0.05805,-0.13239 -0.146025,-0.10197 -0.24238,-0.026 z"
               style="fill:#6e96a8;fill-opacity:1;fill-rule:evenodd;stroke:none;stroke-width:0.42778px;stroke-linecap:butt;stroke-linejoin:miter;stroke-opacity:1" />
            <path
               inkscape:connector-curvature="0"
               id="path8265-8-4-5"
               d="m 60.53125,102.89453 c -1.770908,0.91803 -3.54195,1.9575 -4.846275,3.49816 -0.891274,1.1402 -1.318838,2.70868 -0.889598,4.11782 0.622561,1.88199 2.346162,3.29337 4.266464,3.69712 0.165214,0.0362 0.332338,0.0629 0.498706,0.0932 0.514594,-3.89996 1.030882,-7.7997 1.548828,-11.69922 -0.192708,0.0977 -0.385417,0.19531 -0.578125,0.29297 z"
               style="fill:#333333;fill-opacity:1;fill-rule:evenodd;stroke:none;stroke-width:0.42778px;stroke-linecap:butt;stroke-linejoin:miter;stroke-opacity:1" />
            <path
               transform="scale(-1,1)"
               style="opacity:1;fill:#ccdae0;fill-opacity:1;stroke:none;stroke-width:6.46722;stroke-linecap:butt;stroke-linejoin:round;stroke-miterlimit:4;stroke-dasharray:none;stroke-dashoffset:0;stroke-opacity:1"
               d="m -50.140625,120.00977 c -2.133296,0.10664 -4.123045,1.75263 -4.537109,3.86328 -0.237417,1.2909 0.2365,2.75079 1.343907,3.50701 1.505444,1.03583 3.578416,0.98991 5.149568,0.12311 1.133255,-0.62031 2.054692,-1.69554 2.319864,-2.97875 0.274437,-1.23566 -0.181716,-2.58127 -1.11183,-3.43071 -0.83863,-0.79479 -2.02626,-1.13649 -3.1644,-1.08394 z"
               id="path8355-4-4-7-4-4"
               inkscape:connector-curvature="0" />
          </g>
          <path
             transform="rotate(22.689512)"
             style="opacity:1;fill:#ccdae0;fill-opacity:1;stroke:none;stroke-width:6.46722;stroke-linecap:butt;stroke-linejoin:round;stroke-miterlimit:4;stroke-dasharray:none;stroke-dashoffset:0;stroke-opacity:1"
             d="m 136.89648,40.197266 c -1.60995,0.103854 -3.21935,0.935749 -4.05078,2.349609 -0.84175,1.371669 -0.59731,3.327275 0.6134,4.405837 1.12833,1.084288 2.82194,1.437281 4.32801,1.113694 1.54448,-0.317828 2.99518,-1.326127 3.641,-2.791451 0.41756,-0.997013 0.40505,-2.224248 -0.23712,-3.125731 -0.77212,-1.206896 -2.20118,-1.859459 -3.60114,-1.938503 -0.23063,-0.01768 -0.46222,-0.02018 -0.69337,-0.01346 z"
             id="path8355-4-4-7-1-0"
             inkscape:connector-curvature="0" />
          <path
             style="opacity:1;fill:#b3c8d1;fill-opacity:1;stroke:none;stroke-width:6.46722;stroke-linecap:butt;stroke-linejoin:round;stroke-miterlimit:4;stroke-dasharray:none;stroke-dashoffset:0;stroke-opacity:1"
             d="m 105.35117,91.895489 c -0.99605,1.319247 -0.81334,3.375251 0.41847,4.484513 1.07016,1.070822 2.6554,1.49771 4.13821,1.359392 1.44746,-0.129716 2.9088,-0.792852 3.76071,-2.004328 0.60099,-0.873839 0.77748,-2.055322 0.36034,-3.042702 -0.17111,0.01106 -0.15399,0.244521 -0.2691,0.335841 -0.70908,1.046877 -1.95487,1.601169 -3.18011,1.74619 -1.59246,0.21462 -3.32287,-0.250823 -4.45844,-1.421319 -0.37011,-0.413711 -0.64173,-0.920138 -0.75445,-1.4654 l -0.0154,0.0077 z"
             id="path8355-4-4-7-7-3-9-9"
             inkscape:connector-curvature="0" />
        </g>
        <ellipse
           style="opacity:0.2;vector-effect:none;fill:#000000;fill-opacity:1;stroke:none;stroke-width:7.74553;stroke-linecap:butt;stroke-linejoin:miter;stroke-miterlimit:4;stroke-dasharray:none;stroke-dashoffset:0;stroke-opacity:1"
           id="path4996-1-5-9-0-9"
           cx="279.40152"
           cy="199.33752"
           rx="20.286749"
           ry="4.2059674"
           inkscape:export-filename="/home/issa/flowRoot7051-3-9-1-0-2.png"
           inkscape:export-xdpi="96"
           inkscape:export-ydpi="96"
           transform="matrix(0.99850606,0.05464109,0.05464109,-0.99850606,0,0)" />
        <g
           transform="matrix(-0.79844016,0,0,0.79844016,352.34341,-301.34886)"
           id="layer1-4-6-4"
           inkscape:label="Layer 1"
           style="stroke-width:1.29044">
          <path
             inkscape:connector-curvature="0"
             id="path2070-33-9-5"
             d="m 72.914952,43.2469 2.0535,16.960451 -3.498566,-0.152112 0.380281,-16.732283 z"
             style="fill:#474747;fill-opacity:1;fill-rule:evenodd;stroke:none;stroke-width:0.42778px;stroke-linecap:butt;stroke-linejoin:miter;stroke-opacity:1" />
          <g
             style="stroke-width:18.3918"
             transform="matrix(0.08775739,-0.00515921,0.00515921,0.08775739,39.578463,129.29676)"
             id="g11068-3-2-9">
            <path
               style="fill:#ccdae0;fill-opacity:1;fill-rule:evenodd;stroke:none;stroke-width:4.86617px;stroke-linecap:butt;stroke-linejoin:miter;stroke-opacity:1"
               d="m 175.14648,-353.04102 c 156.41797,-0.63606 312.83594,-1.27213 469.25391,-1.9082 1.15625,-118.02799 2.3125,-236.05599 3.46875,-354.08398 -150.12435,-8.9668 -300.2487,-17.9336 -450.37305,-26.90039 -7.44987,127.63086 -14.89974,255.26171 -22.34961,382.89257 z"
               id="path8208-8-2-3"
               inkscape:connector-curvature="0" />
            <path
               inkscape:connector-curvature="0"
               transform="rotate(2.0892722)"
               style="opacity:1;fill:#333333;fill-opacity:1;stroke:none;stroke-width:73.5673;stroke-linecap:butt;stroke-linejoin:round;stroke-miterlimit:4;stroke-dasharray:none;stroke-dashoffset:0;stroke-opacity:1"
               d="m 264.93555,-512.75977 c -11.97607,0.74822 -23.83654,7.77952 -28.8735,18.89642 -4.41697,9.50106 -2.86719,21.39489 3.83233,29.45374 8.26411,10.35475 22.71802,14.8108 35.50516,11.82676 10.74341,-2.33304 20.5977,-9.95753 24.19062,-20.54103 2.92326,-8.4412 1.54024,-18.21053 -3.7037,-25.4593 -6.87811,-9.80111 -19.14733,-14.92119 -30.95091,-14.17659 z"
               id="path8216-6-4-5" />
            <path
               transform="rotate(2.0892722)"
               style="opacity:1;fill:#333333;fill-opacity:1;stroke:none;stroke-width:73.5673;stroke-linecap:butt;stroke-linejoin:round;stroke-miterlimit:4;stroke-dasharray:none;stroke-dashoffset:0;stroke-opacity:1"
               d="m 524.25977,-513.62305 c -13.94973,0.676 -27.42093,10.55744 -30.98259,24.27593 -3.47606,13.15549 3.91364,28.21167 16.50352,33.43016 15.31687,7.00866 35.4492,1.52655 44.55479,-12.79395 6.07051,-9.42729 6.26418,-22.69383 -0.67598,-31.73512 -6.67526,-9.09009 -18.26852,-13.85409 -29.39974,-13.17702 z"
               id="path8216-0-0-7-7"
               inkscape:connector-curvature="0" />
            <path
               style="opacity:1;fill:#3897c0;fill-opacity:1;stroke:none;stroke-width:73.5673;stroke-linecap:butt;stroke-linejoin:round;stroke-miterlimit:4;stroke-dasharray:none;stroke-dashoffset:0;stroke-opacity:1"
               d="m 166.11766,-545.35974 a 83.453811,82.76823 2.0892738 0 0 -63.56986,77.34774 83.453811,82.76823 2.0892738 0 0 57.76721,81.71252 z"
               id="path8278-4-7-0"
               inkscape:connector-curvature="0" />
            <path
               style="opacity:1;fill:#3897c0;fill-opacity:1;stroke:none;stroke-width:73.5673;stroke-linecap:butt;stroke-linejoin:round;stroke-miterlimit:4;stroke-dasharray:none;stroke-dashoffset:0;stroke-opacity:1"
               d="m 661.10281,-539.3169 c 1.14073,39.31649 1.5963,78.65132 1.40295,117.98377 -0.0555,12.6731 -0.14215,25.34607 -0.20989,38.01913 25.05179,-8.00527 46.62621,-27.3282 55.96719,-52.07972 10.12214,-27.13705 3.87347,-59.81748 -16.16263,-80.86565 -10.94643,-11.70579 -25.3703,-20.03076 -40.88941,-23.95345 -0.0361,0.29864 -0.0721,0.59728 -0.10821,0.89592 z"
               id="path8278-1-8-5-8"
               inkscape:connector-curvature="0" />
            <path
               style="opacity:1;fill:#6e96a8;fill-opacity:1;stroke:none;stroke-width:73.5673;stroke-linecap:butt;stroke-linejoin:round;stroke-miterlimit:4;stroke-dasharray:none;stroke-dashoffset:0;stroke-opacity:1"
               d="m 424.37706,-774.14802 a 142.99676,94.685193 2.0892723 0 0 -121.76107,39.21326 l 240.50468,8.77381 a 142.99676,94.685193 2.0892723 0 0 -118.74361,-47.98707 z"
               id="path8331-8-4-1"
               inkscape:connector-curvature="0" />
            <ellipse
               transform="rotate(2.0892722)"
               style="opacity:1;fill:#3897c0;fill-opacity:1;stroke:none;stroke-width:73.5673;stroke-linecap:butt;stroke-linejoin:round;stroke-miterlimit:4;stroke-dasharray:none;stroke-dashoffset:0;stroke-opacity:1"
               id="path8216-0-2-8-8-9"
               cx="392.52631"
               cy="-974.39923"
               rx="30.187569"
               ry="27.293428" />
            <path
               style="fill:#6e96a8;fill-opacity:1;fill-rule:evenodd;stroke:none;stroke-width:4.86617px;stroke-linecap:butt;stroke-linejoin:miter;stroke-opacity:1"
               d="m 295.16406,-352.94922 c -0.0996,15.7487 -0.19922,31.4974 -0.29883,47.2461 76.70378,-6.3112 153.40756,-12.6224 230.11133,-18.9336 -2.40495,-10.24284 -4.80989,-20.48568 -7.21484,-30.72851 -74.19922,0.80533 -148.39844,1.61067 -222.59766,2.41601 z"
               id="path8353-9-1-9"
               inkscape:connector-curvature="0" />
          </g>
          <path
             inkscape:connector-curvature="0"
             id="path8248-7-2-7"
             d="m 81.214844,123.12695 c 1.434896,4.52604 2.869791,9.05209 4.304687,13.57813 1.083985,-0.056 2.167969,-0.11198 3.251953,-0.16797 -1.768229,-4.85156 -3.536458,-9.70313 -5.304687,-14.55469 -0.750651,0.38151 -1.501302,0.76302 -2.251953,1.14453 z"
             style="fill:#6e96a8;fill-opacity:1;fill-rule:evenodd;stroke:none;stroke-width:0.42778px;stroke-linecap:butt;stroke-linejoin:miter;stroke-opacity:1" />
          <path
             inkscape:connector-curvature="0"
             id="path8248-9-7-8-8"
             d="m 64.78125,137.05273 c 1.155599,-0.0312 2.311198,-0.0625 3.466797,-0.0937 1.108724,-4.60872 2.217448,-9.21744 3.326172,-13.82617 -0.809896,-0.29166 -1.619792,-0.58333 -2.429688,-0.875 -1.454427,4.93164 -2.908854,9.86328 -4.363281,14.79492 z"
             style="fill:#6e96a8;fill-opacity:1;fill-rule:evenodd;stroke:none;stroke-width:0.42778px;stroke-linecap:butt;stroke-linejoin:miter;stroke-opacity:1" />
          <path
             inkscape:connector-curvature="0"
             id="path8212-6-9-2"
             d="m 62.982422,101.53516 c -0.01693,8.22656 -0.03385,16.45312 -0.05078,24.67968 8.647135,-0.91927 17.29427,-1.83854 25.941406,-2.75781 -0.882162,-8.0651 -1.764323,-16.13021 -2.646485,-24.195311 -7.748046,0.757811 -15.496093,1.515621 -23.244141,2.273441 z"
             style="fill:#ccdae0;fill-opacity:1;fill-rule:evenodd;stroke:none;stroke-width:0.42778px;stroke-linecap:butt;stroke-linejoin:miter;stroke-opacity:1" />
          <path
             inkscape:connector-curvature="0"
             id="path8214-3-5"
             d="m 64.101562,135.86328 c -2.163805,0.14365 -4.26543,0.90588 -6.078828,2.08315 -2.595798,1.68951 -4.542348,4.376 -5.270638,7.39265 -0.256727,1.08503 -0.400558,2.22389 -0.193913,3.32961 0.212096,0.68688 0.723916,1.2729 1.371505,1.58326 5.984567,-0.37699 11.967089,-0.78542 17.951171,-1.16992 1.529391,-1.5343 2.253485,-3.805 1.953568,-5.94432 -0.260809,-1.9857 -1.337573,-3.8689 -2.972767,-5.03873 -1.597526,-1.20447 -3.518128,-1.9945 -5.514536,-2.18516 -0.413975,-0.0411 -0.829577,-0.0586 -1.245562,-0.0505 z"
             style="fill:#ccdae0;fill-opacity:1;fill-rule:evenodd;stroke:none;stroke-width:0.42778px;stroke-linecap:butt;stroke-linejoin:miter;stroke-opacity:1" />
          <path
             inkscape:connector-curvature="0"
             id="path8214-4-6-3"
             d="m 89.601562,135.28906 c -2.312793,0.10015 -4.557632,1.04556 -6.311266,2.54472 -0.964153,0.79752 -1.762494,1.8278 -2.162279,3.02302 -0.513621,1.46284 -0.503374,3.13886 0.177667,4.5469 0.398866,0.84054 1.019012,1.59408 1.825251,2.06964 0.523954,0.24081 1.112526,0.12167 1.668099,0.15453 5.123631,0.0523 10.24713,0.11797 15.370886,0.15729 0.4944,-0.18682 0.83745,-0.6294 1.08365,-1.07842 0.27886,-0.61869 0.1783,-1.31815 0.0683,-1.96403 -0.32153,-1.90708 -1.25679,-3.67565 -2.511283,-5.13333 -1.852362,-2.13684 -4.435255,-3.63849 -7.218925,-4.15321 -0.656262,-0.11585 -1.323057,-0.18554 -1.99006,-0.16711 z"
             style="fill:#ccdae0;fill-opacity:1;fill-rule:evenodd;stroke:none;stroke-width:0.42778px;stroke-linecap:butt;stroke-linejoin:miter;stroke-opacity:1" />
          <path
             inkscape:connector-curvature="0"
             id="path8212-2-4-8-4"
             d="m 63.017578,101.42188 c -0.04297,5.83463 -0.08594,11.66927 -0.128906,17.5039 8.342448,-0.9401 16.684896,-1.88021 25.027344,-2.82031 -0.54948,-5.64844 -1.098959,-11.29688 -1.648438,-16.945314 -7.75,0.753906 -15.5,1.507814 -23.25,2.261724 z"
             style="fill:#333333;fill-opacity:1;fill-rule:evenodd;stroke:none;stroke-width:0.42778px;stroke-linecap:butt;stroke-linejoin:miter;stroke-opacity:1" />
          <path
             inkscape:connector-curvature="0"
             id="path8402-3-0-9"
             d="m 74.742188,102.53516 c -0.475261,1.16471 -0.950521,2.32942 -1.425782,3.49414 -1.234638,-0.19761 -2.466342,-0.4129 -3.699218,-0.6211 0.536969,1.07464 1.167132,2.0984 1.769531,3.13672 -0.001,0.18167 -0.204329,0.25274 -0.300465,0.38106 -0.807885,0.76496 -1.649733,1.4928 -2.480785,2.23222 0.05472,0.10932 0.203743,0.042 0.299329,0.0826 1.141042,0.15079 2.287768,0.25125 3.433093,0.36268 0.04893,1.26176 0.09359,2.52371 0.15039,3.78515 0.637438,-0.49742 1.161584,-1.11945 1.760259,-1.66016 0.344237,-0.33073 0.688473,-0.66146 1.03271,-0.99218 0.999158,0.67202 1.987203,1.36035 2.980469,2.04101 0.108317,-0.32316 -0.02857,-0.65929 -0.01572,-0.98903 -0.06667,-0.88666 -0.144447,-1.77246 -0.230377,-2.65745 -0.46523,0.43196 -0.872989,0.97548 -1.494141,1.19141 -0.207277,0.0273 -0.28399,-0.21232 -0.35072,-0.36342 -0.242822,-0.56256 -0.526013,-1.11643 -0.651233,-1.72057 0.220443,-0.30747 0.578651,-0.56636 0.595431,-0.97613 0.07715,-0.55007 -0.40131,-1.12497 -0.969026,-1.09148 -0.609058,-0.004 -1.165948,0.60255 -1.04578,1.21475 0.06482,0.35779 0.323717,0.64537 0.622505,0.83424 0.155368,0.17171 0.0041,0.40173 -0.04074,0.58736 -0.173913,0.57846 -0.359303,1.1538 -0.574498,1.71837 -0.421267,0.0639 -0.779858,-0.21747 -1.111895,-0.43232 -1.240881,-0.89094 -1.744068,-2.66536 -1.15938,-4.0762 0.509649,-1.27372 1.758117,-2.25103 3.140415,-2.33914 1.237801,-0.0889 2.529797,0.53899 3.138672,1.63672 0.556584,0.99857 0.579206,2.25034 0.134766,3.29493 -0.03047,0.11681 -0.130586,0.21782 -0.107422,0.3457 0.415356,-0.003 0.793183,-0.2012 1.194178,-0.28338 0.745639,-0.20998 1.489263,-0.42691 2.231603,-0.64826 -0.143578,-0.24388 -0.424737,-0.34831 -0.640417,-0.5154 -0.772103,-0.51451 -1.555897,-1.01107 -2.338098,-1.50999 0.498709,-1.14338 1.023926,-2.27494 1.523437,-3.41797 -0.76177,0.15981 -1.478472,0.47376 -2.221512,0.69826 -0.465225,0.15527 -0.93045,0.31054 -1.395675,0.4658 -0.576949,-1.07271 -1.150116,-2.14753 -1.744141,-3.21094 z"
             style="fill:#3897c0;fill-opacity:1;stroke-width:1.61681" />
          <path
             style="fill:#6e96a8;fill-opacity:1;fill-rule:evenodd;stroke:none;stroke-width:0.42778px;stroke-linecap:butt;stroke-linejoin:miter;stroke-opacity:1"
             d="m 106.05664,94.259766 c -0.28102,1.505803 -1.05242,2.891622 -2.08677,4.010621 -1.25747,1.351024 -2.87661,2.310953 -4.566943,3.020523 -1.364417,0.55554 -2.777563,1.02877 -4.243821,1.21871 -0.832117,0.10489 -1.681147,0.10508 -2.506762,-0.0526 -0.04755,0.24411 0.146275,0.44434 0.187527,0.67497 0.243481,0.6715 0.486961,1.34299 0.730441,2.01448 2.303947,-0.34274 4.597328,-0.83101 6.784378,-1.64535 1.20147,-0.42345 2.36332,-0.98989 3.36662,-1.78241 1.28156,-0.9845 2.41182,-2.154097 3.43529,-3.401384 0.53937,-0.658408 1.04206,-1.345748 1.53676,-2.038039 -0.8776,-0.689453 -1.75521,-1.378906 -2.63281,-2.068359 -0.001,0.01628 -0.003,0.03255 -0.004,0.04883 z"
             id="path1928-2-0-2-0"
             inkscape:connector-curvature="0"
             sodipodi:nodetypes="cczcczc" />
          <path
             style="fill:#333333;fill-opacity:1;fill-rule:evenodd;stroke:none;stroke-width:0.42778px;stroke-linecap:butt;stroke-linejoin:miter;stroke-opacity:1"
             d="m 87.554688,99.052734 c 0.07992,1.974526 0.278394,3.941406 0.451713,5.909216 0.144479,1.56122 0.305468,3.12083 0.464302,4.68063 1.659958,-0.11036 3.303112,-0.85597 4.376953,-2.14453 0.622329,-0.76071 0.977995,-1.77189 0.825996,-2.75665 -0.158039,-1.17212 -0.846255,-2.21831 -1.735608,-2.97444 -1.299907,-1.14335 -2.83769,-1.96595 -4.37945,-2.731804 l -0.0037,0.01682 z"
             id="path8265-8-4-6-3-1-2"
             inkscape:connector-curvature="0" />
          <g
             transform="translate(0.52916667)"
             id="g12187-0-0-0"
             style="stroke-width:1.29044">
            <path
               sodipodi:nodetypes="cczcczc"
               inkscape:connector-curvature="0"
               id="path1928-92-5-1"
               d="m 59.044922,106.45703 c -2.181577,1.38442 -4.260006,2.97306 -5.966766,4.92477 -0.533873,0.59991 -0.993866,1.26512 -1.353674,1.98358 -0.830905,1.60289 -1.316346,3.35873 -1.673487,5.12094 -0.157079,0.80616 -0.273322,1.6198 -0.367401,2.43556 0.107141,0.083 0.257354,0.0697 0.380319,0.12102 0.979347,0.25132 1.958693,0.50265 2.93804,0.75398 -0.617753,-1.94924 -0.416859,-4.10562 0.391455,-5.96919 0.665502,-1.55022 1.699975,-2.91563 2.866727,-4.12298 1.066218,-1.06567 2.232999,-2.07702 3.625519,-2.68967 0.439883,-0.19405 0.896531,-0.35441 1.368252,-0.45059 -0.142086,-0.2536 -0.391534,-0.42061 -0.57105,-0.6454 -0.49129,-0.51924 -0.982581,-1.03848 -1.473872,-1.55772 -0.05469,0.0319 -0.109375,0.0638 -0.164062,0.0957 z"
               style="fill:#6e96a8;fill-opacity:1;fill-rule:evenodd;stroke:none;stroke-width:0.42778px;stroke-linecap:butt;stroke-linejoin:miter;stroke-opacity:1" />
            <path
               inkscape:connector-curvature="0"
               id="path8265-8-4-5-1-9"
               d="m 61.286031,102.55531 c -1.501064,0.88431 -2.972656,1.86203 -4.174197,3.1363 -0.916454,0.92743 -1.506648,2.20622 -1.489616,3.52117 0.02125,0.74374 0.27557,1.47645 0.721077,2.07244 0.905319,1.26498 2.397734,2.0618 3.939183,2.19664 0.214734,0.0242 0.430942,0.0294 0.64688,0.0277 0.284014,-3.52027 0.595419,-7.03835 0.861672,-10.56002 0.01781,-0.2419 0.03562,-0.4838 0.05343,-0.7257 -0.186145,0.11048 -0.372289,0.22096 -0.558433,0.33143 z"
               style="fill:#333333;fill-opacity:1;fill-rule:evenodd;stroke:none;stroke-width:0.42778px;stroke-linecap:butt;stroke-linejoin:miter;stroke-opacity:1" />
            <path
               transform="scale(-1,1)"
               style="opacity:1;fill:#ccdae0;fill-opacity:1;stroke:none;stroke-width:6.46722;stroke-linecap:butt;stroke-linejoin:round;stroke-miterlimit:4;stroke-dasharray:none;stroke-dashoffset:0;stroke-opacity:1"
               d="m -51.373047,119.91016 c -1.386155,0.0703 -2.762212,0.7203 -3.605209,1.83884 -0.778337,0.98635 -0.950881,2.39369 -0.47651,3.55166 0.233137,0.58435 0.631046,1.09449 1.122595,1.48476 1.596105,1.34766 4.036052,1.51739 5.837428,0.48358 1.045851,-0.58148 1.881564,-1.61213 2.06578,-2.81292 0.180495,-1.18743 -0.280023,-2.44891 -1.184016,-3.2403 -0.995499,-0.9411 -2.407156,-1.36818 -3.760068,-1.30562 z"
               id="path8355-4-4-7-4-1-6"
               inkscape:connector-curvature="0" />
          </g>
          <path
             transform="rotate(22.689512)"
             style="opacity:1;fill:#ccdae0;fill-opacity:1;stroke:none;stroke-width:6.46722;stroke-linecap:butt;stroke-linejoin:round;stroke-miterlimit:4;stroke-dasharray:none;stroke-dashoffset:0;stroke-opacity:1"
             d="m 136.90625,40.316406 c -1.44006,0.109247 -2.86053,0.773006 -3.77344,1.908203 -0.77905,0.972232 -1.05143,2.369316 -0.57606,3.536477 0.42782,1.02884 1.36773,1.777295 2.40329,2.138983 2.04529,0.72707 4.51596,0.06124 5.8897,-1.627278 0.71735,-0.893738 1.00867,-2.147148 0.65027,-3.248436 -0.22966,-0.7085 -0.72409,-1.309311 -1.30931,-1.757989 -0.69894,-0.53037 -1.55222,-0.837701 -2.42318,-0.919151 -0.28587,-0.02873 -0.57403,-0.03924 -0.86127,-0.03081 z"
             id="path8355-4-4-7-1-0-0-2"
             inkscape:connector-curvature="0" />
          <path
             style="opacity:1;fill:#b3c8d1;fill-opacity:1;stroke:none;stroke-width:6.46722;stroke-linecap:butt;stroke-linejoin:round;stroke-miterlimit:4;stroke-dasharray:none;stroke-dashoffset:0;stroke-opacity:1"
             d="m 105.02823,91.978244 c -0.86403,1.150056 -0.83726,2.888282 0.0921,3.99371 0.90098,1.108008 2.31343,1.727214 3.72484,1.798746 1.36524,0.07568 2.78165,-0.326977 3.82765,-1.226049 0.70671,-0.612752 1.18664,-1.506243 1.21616,-2.4497 0.0244,-0.452371 -0.0517,-0.913469 -0.23765,-1.327644 -0.56922,1.058204 -1.65866,1.784398 -2.8274,2.011407 -1.54998,0.353548 -3.26962,0.05202 -4.54139,-0.923445 -0.59865,-0.468123 -1.06957,-1.125517 -1.23277,-1.875071 l -0.006,-0.0039 z"
             id="path8355-4-4-7-7-3-9-5-1"
             inkscape:connector-curvature="0" />
        </g>
        <path
           style="fill:#edeeef;fill-opacity:1;stroke-width:0.258219"
           d="m 209.9683,-229.29867 c 1.50469,0.0807 8.89932,-1.16409 10.03413,-1.68907 0.65525,-0.30307 1.49194,-0.9393 1.85936,-1.41373 0.68171,-0.88025 1.35392,-2.33281 1.12109,-2.42255 -0.46901,-0.18076 -3.22479,0.49695 -3.7892,0.93185 -0.70265,0.54144 -8.07994,1.7483 -9.52083,1.5575 -0.85326,-0.113 -2.0331,-1.28165 -2.22667,-2.20558 -0.33165,-1.58331 0.47643,-3.10851 1.92398,-3.63114 1.47302,-0.53186 8.20891,-1.2807 9.05005,-1.00613 0.90201,0.2944 3.85736,0.10575 3.99645,-0.25514 0.17503,-0.45414 -1.64724,-1.9174 -3.06142,-2.45826 -1.37158,-0.52445 -1.71662,-0.5212 -5.94424,0.0578 -3.17463,0.43479 -4.87198,0.81506 -5.79953,1.29929 -4.35488,2.2735 -4.18217,8.49936 0.29325,10.57164 0.7427,0.34387 1.67143,0.6421 2.06357,0.66351 z m 52.09728,13.36352 c 0.97806,0.0892 2.68298,-0.30622 3.72039,-0.86296 0.3343,-0.17938 1.01729,-0.85329 1.51777,-1.49753 1.58916,-2.04564 1.67933,-4.96455 0.21817,-7.06297 -0.75102,-1.07858 -7.01053,-5.51653 -8.69958,-6.16798 -1.33746,-0.51583 -3.13658,-0.46578 -4.35551,0.12115 -0.43667,0.2103 -0.76315,0.43819 -0.72546,0.50653 0.0376,0.0683 0.65843,0.53229 1.37944,1.03099 0.94426,0.65311 1.52373,0.91127 2.07175,0.92291 0.73335,0.0156 3.60986,1.82438 6.86946,4.31961 2.38187,1.82332 2.02778,4.77348 -0.67269,5.60483 -1.36769,0.42118 -2.31602,-0.0729 -7.99515,-4.16435 -0.44129,-0.31794 -1.0088,-0.94562 -1.26117,-1.39484 -0.25241,-0.44921 -1.06095,-1.23835 -1.79691,-1.75365 l -1.33811,-0.93691 -0.0698,0.78547 c -0.11713,1.31895 0.19833,2.59534 0.93916,3.80012 0.57736,0.93887 1.38254,1.61651 4.40664,3.70875 3.89704,2.69612 4.29313,2.90409 5.79154,3.04084 z m -36.42336,-20.06835 c 5.82379,-0.85921 8.31514,-1.34478 8.60856,-1.67787 0.58445,-0.66345 0.2955,-1.81817 -0.5351,-2.13826 -0.73274,-0.28242 -16.13711,1.81447 -17.10403,2.32826 -1.02928,0.54693 -0.82084,2.14168 0.33036,2.52779 0.2775,0.093 4.19256,-0.3749 8.70018,-1.03992 z m 8.62132,3.29307 c 1.33761,-0.10093 2.00559,-0.2911 2.25225,-0.64127 0.19285,-0.27376 0.47741,-0.63814 0.63233,-0.80975 0.21738,-0.24083 0.0436,-0.4473 -0.76161,-0.90483 -0.81638,-0.46387 -1.35214,-0.58095 -2.4636,-0.53823 -0.78118,0.03 -1.58565,-0.0584 -1.7877,-0.19639 -0.38927,-0.26593 -3.64228,-0.0109 -3.76009,0.29479 -0.14525,0.37685 1.4571,1.76906 2.69505,2.34163 1.07147,0.49558 1.61604,0.57294 3.19334,0.45397 z m 9.54555,3.47136 c 0.62738,-0.0481 1.5842,-0.26902 2.12624,-0.49077 l 0.98556,-0.40309 -1.41557,-0.99423 c -1.029,-0.72274 -1.64824,-1.01157 -2.26759,-1.0577 -0.62107,-0.0463 -1.23768,-0.33529 -2.27486,-1.06633 -1.92356,-1.35581 -1.99624,-1.36251 -1.64314,-0.15157 l 0.30771,1.05472 -0.95812,0.1907 -0.95811,0.1907 0.83478,0.64647 c 1.57431,1.21921 3.99921,2.1779 5.26317,2.08079 z m 13.16023,4.44769 c 0.61841,-0.0995 1.1378,-1.27469 0.85003,-1.92336 -0.11039,-0.24918 -3.29843,-2.61672 -7.0842,-5.26128 -7.35508,-5.13788 -7.64446,-5.27978 -8.4461,-4.14199 -0.84511,1.1995 -0.66854,1.37195 6.54402,6.39037 3.72009,2.58842 6.95643,4.77664 7.19188,4.86277 0.2353,0.0865 0.6604,0.11918 0.94437,0.0735 z m -27.44281,-15.53597 c 0.80354,-0.13158 1.70333,-0.4521 1.99962,-0.7121 0.29628,-0.26003 1.01081,-0.56147 1.58786,-0.66988 1.11148,-0.20879 2.09103,-0.74742 2.2878,-1.25792 0.0848,-0.22015 -0.35647,-0.49092 -1.54949,-0.95073 -1.4319,-0.55187 -1.80359,-0.59629 -2.62497,-0.31341 -1.27148,0.43784 -2.66442,1.77595 -3.14397,3.0202 -0.21371,0.55449 -0.30514,1.03405 -0.20317,1.06568 0.10185,0.0319 0.8428,-0.0502 1.64632,-0.18184 z m 19.951,6.06737 c 0.0828,-0.21747 0.0438,-1.08465 -0.086,-1.92678 -0.29979,-1.94608 -1.1761,-3.05534 -3.97836,-5.03584 l -2.15171,-1.52074 0.71751,1.65107 c 0.58815,1.35339 0.63653,1.66714 0.26836,1.74017 -0.24705,0.049 -0.61573,0.0367 -0.81932,-0.0275 -0.41754,-0.13153 0.2382,0.45545 1.56425,1.40028 0.48993,0.34906 1.06751,0.9954 1.28351,1.43632 0.21594,0.44092 0.99103,1.22397 1.7223,1.74012 1.22303,0.86329 1.3416,0.90679 1.47944,0.54292 z"
           id="path1573"
           sodipodi:nodetypes="cscscssscscsccccssssccsssssscsssssssscscccsssscccscsssccccsccsscsssscscssssccscccsscssssssssss" />
        <path
           inkscape:connector-curvature="0"
           id="path1945-2-5-1"
           d="m 207.4446,-242.2656 c 0.57095,0.0116 1.01531,0.55178 1.03687,1.10125 0.04,0.49874 -0.24322,0.96331 -0.61785,1.27069 -0.63061,0.58343 -1.49642,0.86866 -2.34471,0.90084 -0.39836,-0.009 -0.8321,-0.12626 -1.08564,-0.45484 -0.0335,-0.24373 0.17504,-0.42448 0.24848,-0.64115 0.43026,-0.82647 1.02256,-1.63195 1.88707,-2.0371 0.27629,-0.11296 0.57836,-0.15739 0.87578,-0.13969 z"
           style="fill:#ccdae0;fill-opacity:1;fill-rule:evenodd;stroke:none;stroke-width:0.341556px;stroke-linecap:butt;stroke-linejoin:miter;stroke-opacity:1" />
        <path
           inkscape:connector-curvature="0"
           style="fill:#ccdae0;fill-opacity:1;fill-rule:evenodd;stroke:none;stroke-width:0.341556px;stroke-linecap:butt;stroke-linejoin:miter;stroke-opacity:1"
           d="m 205.387,-239.12363 c 0,0 -0.24639,0.35063 -0.29588,0.72798 -0.0495,0.37739 0.26775,1.45077 0.26775,1.45077 0,0 -0.54353,-0.37068 -0.77555,-0.95803 -0.23201,-0.58736 -0.14255,-1.57124 -0.14255,-1.57124 0,0 0.14895,0.20682 0.3962,0.25774 0.24725,0.051 0.55003,0.0928 0.55003,0.0928 z"
           id="path3328-9"
           sodipodi:nodetypes="csczcscc" />
        <path
           inkscape:connector-curvature="0"
           id="path1945-2-5-8-3"
           d="m 262.10637,-229.52036 c -0.34507,0.17198 -0.59745,0.55604 -0.52801,0.94887 0.0322,0.55323 0.50386,0.99767 1.03044,1.11052 0.89085,0.28648 1.8757,0.17576 2.73287,-0.17182 0.36184,-0.16252 0.73338,-0.44705 0.79869,-0.86124 -0.0387,-0.18011 -0.26074,-0.20605 -0.38094,-0.31716 -0.8422,-0.52845 -1.7949,-0.98675 -2.81228,-0.95689 -0.29435,0.0181 -0.58476,0.10057 -0.84077,0.24772 z"
           style="fill:#ccdae0;fill-opacity:1;fill-rule:evenodd;stroke:none;stroke-width:0.341556px;stroke-linecap:butt;stroke-linejoin:miter;stroke-opacity:1" />
        <path
           style="fill:#f59232;fill-opacity:1;stroke-width:0.258219"
           d="m 234.81212,-226.55315 c 0.84699,-2.36425 0.96611,-2.90128 0.66907,-3.01577 -0.30029,-0.11574 -0.54186,0.32883 -1.42808,2.62824 -0.94941,2.46338 -1.02298,2.79482 -0.66906,3.01579 0.36612,0.22853 0.47917,0.0205 1.42807,-2.62826 z m 4.69281,3.05855 c 0.0589,-0.15291 -0.0132,-1.14582 -0.16026,-2.20645 -0.47459,-3.42263 -0.78455,-4.18677 -1.41499,-3.48833 -0.42449,0.47026 0.47254,5.58911 1.01615,5.79863 0.24857,0.0958 0.50017,0.0491 0.5591,-0.10388 z m -8.2214,-5.24713 c 2.00246,-1.58959 2.51461,-2.30605 1.83552,-2.56779 -0.41023,-0.15812 -4.66884,3.21419 -4.58986,3.63461 0.13459,0.71645 0.86351,0.43416 2.75434,-1.06682 z m 14.49981,-16.7003 c 2.55587,-2.04297 3.19384,-2.92076 2.12398,-2.92232 -0.52191,-7.8e-4 -4.60666,3.33704 -4.53709,3.70743 0.13265,0.70571 0.83317,0.47779 2.4131,-0.78514 z m -6.76934,-0.86869 c 0.35869,-0.27231 -0.53204,-5.60463 -0.98326,-5.88633 -0.64202,-0.40084 -0.73714,0.49865 -0.33231,3.14278 0.36173,2.36282 0.75011,3.17283 1.31557,2.74355 z m 2.86609,0.35362 c 0.1287,-0.0572 0.66076,-1.21096 1.18228,-2.56411 0.68867,-1.78683 0.88689,-2.56982 0.72414,-2.86062 -0.44987,-0.80388 -1.00293,-0.0686 -1.94033,2.57966 -0.72338,2.04353 -0.82629,2.55905 -0.54583,2.73367 0.19012,0.11836 0.45095,0.16858 0.57974,0.1114 z"
           id="path1573-3"
           sodipodi:nodetypes="ssccssssscsscssscscsccccssssss" />
      </g>
    </g>
  </g>
</svg>
